<svg xmlns="http://www.w3.org/2000/svg" width="96" height="96" baseProfile="basic" viewBox="0 0 64 64"><linearGradient id="a" x1="19.926" x2="19.926" y1="30.337" y2="35.677" gradientUnits="userSpaceOnUse"><stop offset="0" stop-color="#6dc7ff"/><stop offset=".699" stop-color="#e6abff"/></linearGradient><path fill="url(#a)" d="M20.92 36.28h-4.3l1.04-5.69h3.69c.8 0 1.27.46 1.48.73.2.27.53.84.35 1.62l-.43 1.87c-.2.86-.95 1.47-1.83 1.47z"/><linearGradient id="b" x1="32" x2="32" y1="19.842" y2="44.243" gradientUnits="userSpaceOnUse"><stop offset="0" stop-color="#6dc7ff"/><stop offset=".699" stop-color="#e6abff"/></linearGradient><path fill="url(#b)" d="M48.56 31.33a1.8 1.8 0 0 0-1.45-.74h-3.59l-1.01 5.69h4.18c.86 0 1.59-.61 1.79-1.47l.42-1.88c.17-.77-.14-1.34-.34-1.6zm0 0a1.8 1.8 0 0 0-1.45-.74h-3.59l-1.01 5.69h4.18c.86 0 1.59-.61 1.79-1.47l.42-1.88c.17-.77-.14-1.34-.34-1.6zm9.09-5.1c.5.41.97.84 1.39 1.27-.42-.44-.88-.86-1.39-1.27zm1.39 14.27c-.42.43-.89.86-1.39 1.27.51-.41.97-.83 1.39-1.27zM54.2 23.92c.64.36 1.26.73 1.83 1.11-.58-.39-1.18-.76-1.83-1.11zm1.83 19.05c-.57.38-1.19.75-1.83 1.11.65-.35 1.25-.72 1.83-1.11zM32 21C16.82 21 4 26.95 4 34s12.82 13 28 13 28-5.95 28-13-12.82-13-28-13zm-6.23 12.57-.43 1.88c-.49 2.1-2.3 3.58-4.42 3.58h-4.81l-.45 2.45c-.04.21-.21.36-.41.36h-1.79c-.17 0-.27-.1-.31-.15a.473.473 0 0 1-.1-.38l2.51-13.11c.04-.2.21-.35.41-.35h5.23c1.23 0 2.36.41 3.17 1.17a4.676 4.676 0 0 1 1.4 4.55zm13.19-2.6-1.35 6.76c-.04.21-.24.36-.47.36h-1.93c-.15 0-.29-.06-.38-.17a.41.41 0 0 1-.09-.34l1.14-5.99c.08-.41-.03-.84-.3-1.16-.28-.34-.7-.54-1.15-.54h-3.22l-1.44 7.83c-.04.22-.23.37-.47.37h-1.93c-.15 0-.29-.06-.38-.17a.448.448 0 0 1-.09-.34l2.59-14.05c.04-.21.24-.37.47-.37h1.93c.15 0 .29.07.38.18.05.05.12.17.09.33l-.64 3.47h3.76c.67 0 1.28.14 1.76.4 1.29.69 1.98 2.07 1.72 3.43zm12.42 2.6-.42 1.88c-.47 2.1-2.23 3.58-4.27 3.58h-4.67l-.44 2.46c-.03.2-.19.35-.38.35h-1.74c-.14 0-.24-.09-.28-.14a.495.495 0 0 1-.1-.39l2.43-13.11c.04-.21.2-.35.38-.35h5.08c1.18 0 2.26.41 3.05 1.17 1.23 1.17 1.74 2.87 1.36 4.55zm-4.27-2.98h-3.59l-1.01 5.69h4.18c.86 0 1.59-.61 1.79-1.47l.42-1.88c.17-.77-.14-1.34-.34-1.6a1.8 1.8 0 0 0-1.45-.74zM7.97 25.03c.57-.38 1.19-.75 1.83-1.11-.65.35-1.25.72-1.83 1.11zM9.8 44.08c-.64-.36-1.26-.73-1.83-1.11.58.39 1.18.76 1.83 1.11zM4.96 27.5c.42-.43.89-.86 1.39-1.27-.51.41-.97.83-1.39 1.27zm1.39 14.27c-.5-.41-.97-.84-1.39-1.27.42.44.88.86 1.39 1.27z"/><path fill="#fff" d="M57.65 26.23c.5.41.97.84 1.39 1.27-.42-.44-.88-.86-1.39-1.27zm1.39 14.27c-.42.43-.89.86-1.39 1.27.51-.41.97-.83 1.39-1.27zm-3.01-15.47c-.58-.39-1.18-.76-1.83-1.11.64.36 1.26.73 1.83 1.11zm0 17.94c-.57.38-1.19.75-1.83 1.11.65-.35 1.25-.72 1.83-1.11zM9.8 23.92c-.65.35-1.25.72-1.83 1.11.57-.38 1.19-.75 1.83-1.11zm0 20.16c-.64-.36-1.26-.73-1.83-1.11.58.39 1.18.76 1.83 1.11zM6.35 26.23c-.51.41-.97.83-1.39 1.27.42-.43.89-.86 1.39-1.27zm0 15.54c-.5-.41-.97-.84-1.39-1.27.42.44.88.86 1.39 1.27z"/><linearGradient id="c" x1="32" x2="32" y1="13" y2="60.627" gradientUnits="userSpaceOnUse"><stop offset="0" stop-color="#1a6dff"/><stop offset="1" stop-color="#c822ff"/></linearGradient><path fill="url(#c)" d="M32 17C14.06 17 0 24.47 0 34s14.06 17 32 17 32-7.47 32-17-14.06-17-32-17zm29.65 19.28c-.45 1.49-1.35 2.91-2.61 4.22-.42.43-.89.86-1.39 1.27-.5.41-1.04.81-1.62 1.2-.57.38-1.19.75-1.83 1.11C48.7 47.1 40.79 49 32 49s-16.7-1.9-22.2-4.92c-.64-.36-1.26-.73-1.83-1.11-.58-.39-1.12-.79-1.62-1.2-.5-.41-.97-.84-1.39-1.27-1.26-1.31-2.16-2.73-2.61-4.22-.16-.49-.26-1-.31-1.51-.03-.25-.04-.51-.04-.77s.01-.52.04-.77c.05-.51.15-1.02.31-1.51.45-1.49 1.35-2.91 2.61-4.22.42-.43.89-.86 1.39-1.27.5-.41 1.04-.81 1.62-1.2.57-.38 1.19-.75 1.83-1.11C15.3 20.9 23.21 19 32 19s16.7 1.9 22.2 4.92c.64.36 1.26.73 1.83 1.11.58.39 1.12.79 1.62 1.2.5.41.97.84 1.39 1.27 1.26 1.31 2.16 2.73 2.61 4.22.16.49.26 1 .31 1.51.03.25.04.51.04.77s-.01.52-.04.77c-.05.51-.15 1.02-.31 1.51z"/></svg>